<?xml version="1.0" standalone="no"?><!DOCTYPE svg PUBLIC "-//W3C//DTD SVG 1.1//EN" "http://www.w3.org/Graphics/SVG/1.1/DTD/svg11.dtd"><svg t="1573203015113" class="icon" viewBox="0 0 1024 1024" version="1.1" xmlns="http://www.w3.org/2000/svg" p-id="1369" xmlns:xlink="http://www.w3.org/1999/xlink" width="200" height="200"><defs><style type="text/css"></style></defs><path d="M512 0C229.7 0 0 229.7 0 512s229.7 512 512 512 512-229.7 512-512S794.3 0 512 0z m0 979.5C254.2 979.5 44.5 769.8 44.5 512S254.2 44.5 512 44.5 979.5 254.2 979.5 512 769.8 979.5 512 979.5z" p-id="1370"></path><path d="M779.2 489.7H534.3V244.9c0-12.3-10.1-22.3-22.3-22.3-12.3 0-22.3 10.1-22.3 22.3v244.8H244.9c-12.3 0-22.3 10.1-22.3 22.3 0 12.3 10.1 22.3 22.3 22.3h244.8v244.9c0 12.3 10.1 22.3 22.3 22.3 12.3 0 22.3-10.1 22.3-22.3V534.3h244.8c12.3 0 22.3-10.1 22.4-22.3 0-12.3-10.1-22.3-22.3-22.3z" p-id="1371"></path></svg>