<?xml version="1.0" standalone="no"?><!DOCTYPE svg PUBLIC "-//W3C//DTD SVG 1.1//EN" "http://www.w3.org/Graphics/SVG/1.1/DTD/svg11.dtd"><svg t="1573461284971" class="icon" viewBox="0 0 1024 1024" version="1.1" xmlns="http://www.w3.org/2000/svg" p-id="1426" xmlns:xlink="http://www.w3.org/1999/xlink" width="200" height="200"><defs><style type="text/css"></style></defs><path d="M51.17712322 989.72196569c5.88216097 5.88216097 13.60438255 8.80815899 21.32660416 8.80815898 7.72222158 0 15.44444316-2.95616294 21.35676905-8.83832391l431.11715183-431.62995562 431.11715182 431.62995562c5.88216097 5.9123259 13.60438255 8.83832393 21.35676908 8.83832391 7.72222158 0 15.44444316-2.95616294 21.32660413-8.80815898 11.79448686-11.76432195 11.79448686-30.8587214 0.03016494-42.65320828L568.11349538 515.89127572 998.77817329 84.74395898c11.76432195-11.79448686 11.76432195-30.88888633-0.03016492-42.65320829-11.8246518-11.79448686-30.88888633-11.79448686-42.65320829 0.03016493L524.94748332 473.75087122 93.83033151 42.12091562c-11.79448686-11.79448686-30.88888633-11.79448686-42.65320829-0.03016493-11.79448686 11.76432195-11.79448686 30.8587214-0.03016493 42.65320829l430.63451298 431.14731674L51.14695829 947.06875741C39.38263636 958.83307934 39.38263636 977.95764374 51.17712322 989.72196569z" p-id="1427"></path></svg>