<?xml version="1.0" standalone="no"?><!DOCTYPE svg PUBLIC "-//W3C//DTD SVG 1.1//EN" "http://www.w3.org/Graphics/SVG/1.1/DTD/svg11.dtd"><svg t="1576141080413" class="icon" viewBox="0 0 1024 1024" version="1.1" xmlns="http://www.w3.org/2000/svg" p-id="1122" xmlns:xlink="http://www.w3.org/1999/xlink" width="200" height="200"><defs><style type="text/css"></style></defs><path d="M664.46791111 643.97653333c13.27445333 13.27445333 34.99690667 13.27445333 48.27136 0l176.99726222-176.99726222c6.70037333-6.70037333 10.01358222-15.55228445 9.94986667-24.38371556 0.06371555-8.83143111-3.24949333-17.68334222-9.94986667-24.38371555L712.73927111 241.21457778c-13.27445333-13.27445333-34.99690667-13.27445333-48.27136 0s-13.27445333 34.99690667 0 48.27136L817.57752889 442.59555555 664.46791111 595.70517333c-13.27445333 13.27445333-13.27445333 34.99690667 0 48.27136zM142.22791111 466.97927111l176.99726222 176.99726222c13.27445333 13.27445333 34.99690667 13.27445333 48.27136 0s13.27445333-34.99690667 0-48.27136L214.38691555 442.59555555l153.10961778-153.10961777c13.27445333-13.27445333 13.27445333-34.99690667 0-48.27136s-34.99690667-13.27445333-48.27136 0L142.22791111 418.21184c-6.70037333 6.70037333-10.01358222 15.55228445-9.94986666 24.38371555-0.06371555 8.83143111 3.24949333 17.68334222 9.94986666 24.38371556zM458.54947555 727.65098667c18.36373333 3.90257778 36.58069333-7.92803555 40.4844089-26.29063112l104.08504888-489.68248888c3.90371555-18.36373333-7.92803555-36.58069333-26.29063111-40.48440889-18.36373333-3.90371555-36.58183111 7.92803555-40.48440889 26.29063111l-104.08504888 489.68248889c-3.90371555 18.36373333 7.92803555 36.58069333 26.2906311 40.48440889z" p-id="1123"></path><path d="M954.31111111 3.41333333h-882.91555556c-37.54666667 0-68.26666667 30.72-68.26666666 68.26666667v737.28c0 37.54666667 30.72 68.26666667 68.26666666 68.26666667h882.91555556c37.54666667 0 68.26666667-30.72 68.26666667-68.26666667V71.68c0-37.54666667-30.72-68.26666667-68.26666667-68.26666667z m1.70666667 805.54666667h-886.32888889V71.68h886.32888889v737.28zM931.84 954.59555555H113.77777778c-18.77333333 0-34.13333333 15.36-34.13333333 34.13333334s15.36 34.13333333 34.13333333 34.13333333h818.06222222c18.77333333 0 34.13333333-15.36 34.13333333-34.13333333s-15.36-34.13333333-34.13333333-34.13333334z" p-id="1124"></path></svg>