<?xml version="1.0" standalone="no"?><!DOCTYPE svg PUBLIC "-//W3C//DTD SVG 1.1//EN" "http://www.w3.org/Graphics/SVG/1.1/DTD/svg11.dtd"><svg t="1573202587601" class="icon" viewBox="0 0 1024 1024" version="1.1" xmlns="http://www.w3.org/2000/svg" p-id="1185" xmlns:xlink="http://www.w3.org/1999/xlink" width="200" height="200"><defs><style type="text/css"></style></defs><path d="M1017.96219259 386.99614815c-9.95176297-28.15620741-35.19525925-48.42382222-65.77872592-53.03561482l-254.86222222-37.25842963-110.8043852-226.70601481c-13.34992592-27.54939259-42.5984-45.51111111-74.51685925-45.51111111-31.7970963 0-60.92420741 17.84035555-74.27413333 45.38974814l-110.80438519 226.70601483-255.22631111 37.37979258C41.1117037 338.45096297 15.98957037 358.71857778 6.03780741 386.99614815-3.79259259 415.63780741 3.48918518 446.58536297 25.33451852 467.94524445l187.14168889 183.86488888-43.44794074 255.10494815c-5.33997037 30.21937778 7.64586667 60.07466667 33.98162963 78.03638519 13.83537778 9.34494815 30.09801482 14.32082963 47.21019259 14.32082963 13.83537778 0 27.42802963-3.2768 39.68568889-9.70903705l221.97285925-117.9648 222.94376297 118.3288889c26.82121482 13.83537778 61.04557037 11.89357037 86.65315555-4.97588148 25.97167408-17.71899259 38.83614815-47.69564445 33.61754075-77.91502222l-43.44794075-255.10494815 187.26305186-184.22897778c21.60260741-21.11715555 28.88438518-52.06471111 19.05398518-80.70637037z m-65.05054814 34.34571852L753.5122963 617.34305185c-7.64586667 7.5245037-11.16539259 18.32580741-9.34494815 28.88438518l46.23928888 272.09576297c0.84954075 4.85451852-1.33499259 9.34494815-5.70405925 12.37902222-5.33997037 3.64088889-14.56355555 3.76225185-19.53943703 1.21362963l-237.87140742-126.21748148c-9.58767408-5.09724445-21.11715555-4.97588148-30.82619258 0L259.32231111 931.79448889c-5.82542222 3.03407408-14.44219259 2.66998518-19.53943703-0.84954074-2.3058963-1.45635555-7.40314075-5.82542222-6.18951111-12.74311112l46.36065185-272.09576295c1.82044445-10.55857778-1.57771852-21.35988148-9.34494815-28.88438519L71.20971852 421.34186667c-3.51952592-3.51952592-4.85451852-8.25268148-3.2768-12.50038519 1.82044445-5.21860741 6.91768889-8.98085925 13.34992593-9.95176296l272.21712592-39.92841482c10.67994075-1.57771852 19.90352592-8.37404445 24.75804445-17.96171852l118.45025185-242.24047407c2.54862222-5.09724445 8.73813333-8.61677037 15.4130963-8.61677036 6.79632592 0 13.1072 3.39816297 15.53445925 8.61677036l118.45025186 242.24047407c4.73315555 9.70903703 13.95674075 16.50536297 24.75804444 17.96171852L942.83851852 398.76835555c6.5536 0.9709037 11.77220741 4.85451852 13.47128889 9.70903704 1.33499259 4.61179259 0.12136297 9.34494815-3.39816296 12.86447408z m0 0" p-id="1186"></path></svg>