<?xml version="1.0" standalone="no"?><!DOCTYPE svg PUBLIC "-//W3C//DTD SVG 1.1//EN" "http://www.w3.org/Graphics/SVG/1.1/DTD/svg11.dtd"><svg t="1573202845697" class="icon" viewBox="0 0 1024 1024" version="1.1" xmlns="http://www.w3.org/2000/svg" p-id="1133" xmlns:xlink="http://www.w3.org/1999/xlink" width="200" height="200"><defs><style type="text/css"></style></defs><path d="M14.16131555 87.21608012a47.13223982 47.13223982 0 0 1 66.5744786-66.57447859L539.10176285 479.00757021a47.13223982 47.13223982 0 0 1 0 66.5744786L80.73579415 1003.94801749a47.13223982 47.13223982 0 0 1-66.5744786-66.57585942L438.94385457 512z m471.32654064 0a47.13223982 47.13223982 0 0 1 66.57447862-66.5744786l457.77634964 457.77634967a47.13223982 47.13223982 0 0 1 0 66.5744786L551.47409661 1003.35839848a47.13223982 47.13223982 0 0 1-66.57585946-66.5744786L910.27177606 512z" p-id="1134"></path></svg>