<?xml version="1.0" standalone="no"?><!DOCTYPE svg PUBLIC "-//W3C//DTD SVG 1.1//EN" "http://www.w3.org/Graphics/SVG/1.1/DTD/svg11.dtd"><svg t="1573202839914" class="icon" viewBox="0 0 1024 1024" version="1.1" xmlns="http://www.w3.org/2000/svg" p-id="1015" xmlns:xlink="http://www.w3.org/1999/xlink" width="200" height="200"><defs><style type="text/css"></style></defs><path d="M1009.83868445 936.78391988a47.13223982 47.13223982 0 0 1-66.5744786 66.57447859L484.89823715 544.99242979a47.13223982 47.13223982 0 0 1 0-66.5744786L943.26420585 20.05198251a47.13223982 47.13223982 0 0 1 66.5744786 66.57585942L585.05614543 512z m-471.32654064 0a47.13223982 47.13223982 0 0 1-66.57447862 66.57447859l-457.77634964-457.77634966a47.13223982 47.13223982 0 0 1 0-66.5744786L472.52590339 20.64160153a47.13223982 47.13223982 0 0 1 66.57585946 66.57447859L113.72822394 512z" p-id="1016"></path></svg>