<?xml version="1.0" standalone="no"?><!DOCTYPE svg PUBLIC "-//W3C//DTD SVG 1.1//EN" "http://www.w3.org/Graphics/SVG/1.1/DTD/svg11.dtd"><svg t="1573202745497" class="icon" viewBox="0 0 1024 1024" version="1.1" xmlns="http://www.w3.org/2000/svg" p-id="2264" xmlns:xlink="http://www.w3.org/1999/xlink" width="200" height="200"><defs><style type="text/css"></style></defs><path d="M865.39413333 757.58933333c0 3.43146667 2.7808 6.21226667 6.21226667 6.21226667s6.21226667-2.7808 6.21226667-6.21226667a6.2112 6.2112 0 0 0-6.21226667-6.21226666 6.2112 6.2112 0 0 0-6.21226667 6.21226666zM728.2464 899.10613333c0 6.82453333 5.53173333 12.35626667 12.35626667 12.35626667s12.35626667-5.53173333 12.35626666-12.35626667-5.53173333-12.35626667-12.35626666-12.35626666-12.35626667 5.53173333-12.35626667 12.35626666zM543.38026667 971.94666667c0 10.25493333 8.3136 18.56853333 18.56853333 18.56853333s18.56853333-8.3136 18.56853333-18.56853333-8.3136-18.56853333-18.56853333-18.56853334-18.56853333 8.3136-18.56853333 18.56853334z m-198.99733334-9.76213334c0 13.648 11.06453333 24.71253333 24.71253334 24.71253334s24.71253333-11.06453333 24.71253333-24.71253334-11.06453333-24.71253333-24.71253333-24.71253333-24.71253333 11.06453333-24.71253334 24.71253333zM167.84533333 871.59466667c0 17.07946667 13.84533333 30.9248 30.9248 30.9248s30.9248-13.84533333 30.9248-30.9248-13.84533333-30.9248-30.9248-30.9248-30.9248 13.84533333-30.9248 30.9248zM45.57973333 717.58506667c0 20.50986667 16.6272 37.13706667 37.13706667 37.13706666s37.13706667-16.6272 37.13706667-37.13706666-16.6272-37.13706667-37.13706667-37.13706667-37.13706667 16.6272-37.13706667 37.13706667z m-45.8752-189.09866667c0 23.904 19.37706667 43.28106667 43.28106667 43.28106667s43.28106667-19.37706667 43.28106667-43.28106667-19.37706667-43.28106667-43.28106667-43.28106667-43.28106667 19.37706667-43.28106667 43.28106667z m37.75146667-187.86986667c0 27.3344 22.15893333 49.49333333 49.49333333 49.49333334s49.49333333-22.15893333 49.49333334-49.49333334c0-27.3344-22.15893333-49.49333333-49.49333334-49.49333333-27.3344 0-49.49333333 22.15893333-49.49333333 49.49333333z m113.2544-151.48373333c0 30.76586667 24.93973333 55.7056 55.7056 55.7056s55.7056-24.93973333 55.7056-55.7056c0-30.76586667-24.93973333-55.7056-55.7056-55.7056-30.76586667 0-55.7056 24.93973333-55.7056 55.7056z m166.2976-86.76693333c0 34.15893333 27.69066667 61.8496 61.8496 61.8496s61.8496-27.69066667 61.8496-61.8496-27.69066667-61.8496-61.8496-61.8496-61.8496 27.69066667-61.8496 61.8496z m186.7776-5.39306667c0 37.58933333 30.47253333 68.06186667 68.06186667 68.06186667s68.06186667-30.47253333 68.06186666-68.06186667c0-37.58933333-30.47253333-68.06186667-68.06186666-68.06186667-37.58933333 0-68.06186667 30.47253333-68.06186667 68.06186667z m171.008 76.93653333c0 40.9824 33.22346667 74.20586667 74.20586667 74.20586667s74.20586667-33.22346667 74.20586666-74.20586667-33.22346667-74.20586667-74.20586666-74.20586666-74.20586667 33.22346667-74.20586667 74.20586666z m121.51466667 144.52053334c0 44.41386667 36.00426667 80.41813333 80.41813333 80.41813333s80.41813333-36.00426667 80.41813333-80.41813333-36.00426667-80.41813333-80.41813333-80.41813334-80.41813333 36.00426667-80.41813333 80.41813334z m48.3328 187.1872c0 47.84426667 38.78613333 86.6304 86.6304 86.6304s86.6304-38.78613333 86.6304-86.6304c0-47.84426667-38.78613333-86.6304-86.6304-86.6304-47.84426667 0-86.6304 38.78613333-86.6304 86.6304z" p-id="2265"></path></svg>