<?xml version="1.0" standalone="no"?><!DOCTYPE svg PUBLIC "-//W3C//DTD SVG 1.1//EN" "http://www.w3.org/Graphics/SVG/1.1/DTD/svg11.dtd"><svg t="1582273742555" class="icon" viewBox="0 0 1024 1024" version="1.1" xmlns="http://www.w3.org/2000/svg" p-id="1407" xmlns:xlink="http://www.w3.org/1999/xlink" width="200" height="200"><defs><style type="text/css"></style></defs><path d="M936.78391988 14.16131555a47.13223982 47.13223982 0 0 1 66.57447859 66.5744786L544.99242979 539.10176285a47.13223982 47.13223982 0 0 1-66.5744786 0L20.05198251 80.73579415a47.13223982 47.13223982 0 0 1 66.57585942-66.5744786L512 438.94385457z m0 471.32654064a47.13223982 47.13223982 0 0 1 66.5744786 66.57447862l-457.77634967 457.77634964a47.13223982 47.13223982 0 0 1-66.5744786 0L20.64160152 551.47409661a47.13223982 47.13223982 0 0 1 66.5744786-66.57585946L512 910.27177606z" p-id="1408"></path></svg>