<?xml version="1.0" standalone="no"?><!DOCTYPE svg PUBLIC "-//W3C//DTD SVG 1.1//EN" "http://www.w3.org/Graphics/SVG/1.1/DTD/svg11.dtd"><svg t="1573202715160" class="icon" viewBox="0 0 1025 1024" version="1.1" xmlns="http://www.w3.org/2000/svg" p-id="1671" xmlns:xlink="http://www.w3.org/1999/xlink" width="200.1953125" height="200"><defs><style type="text/css"></style></defs><path d="M693.515077 347.245655c11.74960199 0 23.382547 0.859577 34.914184 2.14894301C697.061856 203.30740601 540.865421 94.76634 362.58706199 94.76634c-199.316511 0-362.588085 135.851061-362.58808499 308.365136 0 99.576903 54.32118599 181.34827799 145.092539 244.76972599l-36.266995 109.07011401 126.752846-63.556525c45.35395399 8.977465 81.74886201 18.201547 127.01071901 18.20154699 11.379165 0 22.661116-0.561795 33.84994599-1.43467499-7.087419-24.242124-11.189853-49.63649001-11.189853-75.972299C385.24715401 475.798497 521.281387 347.245655 693.515077 347.245655L693.515077 347.245655zM498.558873 248.94072201c27.30078599 0 45.384653 17.963117 45.38465301 45.24650699 0 27.174919-18.083867 45.382607-45.38465301 45.382607-27.181059 0-54.448076-18.207687-54.448076-45.382607C444.11182 266.895653 471.378837 248.94072201 498.558873 248.94072201L498.558873 248.94072201zM244.794285 339.568812c-27.174919 0-54.601572-18.207687-54.601572-45.387723 0-27.285436 27.427676-45.24139001 54.601572-45.24139 27.175943 0 45.261856 17.95595399 45.261856 45.24139C290.058189 321.361125 271.970228 339.568812 244.794285 339.568812L244.794285 339.568812zM1024.444115 629.844965c0-144.961556-145.05877001-263.11760601-307.98242-263.117606-172.519192 0-308.393789 118.15604999-308.39378901 263.117606 0 145.213289 135.874597 263.12374599 308.39378901 263.123746 36.107359 0 72.529897-9.104355 108.790752-18.195408l99.45308299 54.460356-27.26701699-90.610694C970.219119 784.018324 1024.444115 711.615317 1024.444115 629.844965L1024.444115 629.844965zM616.471376 584.479755c-18.055215 0-36.266995-17.96209401-36.266995-36.285414 0-18.06135401 18.213827-36.255739 36.266995-36.25573901 27.427676 0 45.387723 18.193361 45.387723 36.25573901C661.860123 566.517661 643.899052 584.479755 616.471376 584.479755L616.471376 584.479755zM815.91375399 584.479755c-17.928325 0-36.01423801-17.96209401-36.01423799-36.285414 0-18.06135401 18.08796-36.255739 36.01423799-36.25573901 27.175943 0 45.384653 18.193361 45.38465301 36.25573901C861.297384 566.517661 843.08867401 584.479755 815.91375399 584.479755L815.91375399 584.479755z" p-id="1672"></path></svg>